<?xml version="1.0" ?><!DOCTYPE svg  PUBLIC '-//W3C//DTD SVG 1.1//EN'  'http://www.w3.org/Graphics/SVG/1.1/DTD/svg11.dtd'><svg enable-background="new 0 0 40 40" version="1.1" viewBox="0 0 40 40" xml:space="preserve" xmlns="http://www.w3.org/2000/svg" xmlns:xlink="http://www.w3.org/1999/xlink"><g id="Controls"><g id="D71_4_"/><g id="D61_4_"/><g id="D51_4_"/><g id="Dolby"/><g id="Stereo_4_"/><g id="CC_4_"/><g id="HD_4_"/><g id="SD_4_"/><g id="Pause_02"/><g id="Play_02"/><g id="Left_02"/><g id="Right_02"/><g id="Down_02"/><g id="Up_02"/><g id="Urgent_02"/><g id="Info_02"/><g id="Help_02"/><g id="OK_02"/><g id="Remove__02"/><g id="Minus_02"/><g id="Plus_02"/><g id="Pause_01"/><g id="Play_01"/><g id="Left_01"/><g id="Right_01"/><g id="Down_01"/><g id="Up_01"/><g id="Urgent_01"/><g id="Info_01"/><g id="Help_01"/><g id="OK_01"/><g id="Remove_01"/><g id="Minus_01"/><g id="Plus_01"/><g id="Chevron_Light_Down_2_"/><g id="Chevron_Light_Up_2_"/><g id="Chevron_Heavy_Down_1_"/><g id="Chevron_Heavy_Up_3_"/><g id="Chevron_Light_Right_2_"/><g id="Chevron_Light_Left_2_"/><g id="Chevron_Heavy_Right_2_"/><g id="Chevron_Heavy_Left_2_"/><g id="Random_2_"/><g id="Rotation_Lock_4_"/><g id="Replay_1_"/><g id="Rotation_3_"/><g id="Refresh_2_"/><g id="Power_3_"><g><g id="Power"><g><circle clip-rule="evenodd" cx="20" cy="20" fill="#1ABC9C" fill-rule="evenodd" r="12.5"/></g></g><g id="Power_1_"><g><path clip-rule="evenodd" d="M20,16.5c0.6,0,1-0.4,1-1v-3c0-0.6-0.4-1-1-1       c-0.6,0-1,0.4-1,1v3C19,16.1,19.4,16.5,20,16.5z M24.6,14.8c-0.4-0.4-1-0.4-1.4,0.1c-0.4,0.4-0.4,1,0.1,1.4       c1,0.9,1.6,2.2,1.6,3.6c0,2.7-2.2,4.9-4.9,4.9c-2.7,0-4.9-2.2-4.9-4.9c0-1.5,0.7-3,1.9-3.9c0.4-0.3,0.5-1,0.2-1.4       c-0.3-0.4-1-0.5-1.4-0.2c-1.7,1.3-2.7,3.3-2.7,5.5c0,3.8,3.1,6.9,6.9,6.9c3.8,0,6.9-3.1,6.9-6.9C26.8,18,26,16.1,24.6,14.8z" fill="#ECF0F1" fill-rule="evenodd"/></g></g></g></g><g id="Transfer_4_"/><g id="Retweet_2_"/><g id="Loop_2_"/><g id="Delete_3_"/><g id="Brighten_3_"/><g id="Dim_3_"/><g id="Screen_Fit_4_"/><g id="Screen_Fill_3_"/><g id="Down_03"/><g id="Up_03"/><g id="Right_03"/><g id="Left_03"/><g id="Bell_3_"/><g id="Bell_Mute_4_"/><g id="Playlist_3_"/><g id="Octave_2_"/><g id="Quaver_2_"/><g id="Earbuds_4_"/><g id="Mute_Mic_1_"/><g id="Mic_4_"/><g id="Volume_Up"/><g id="Volume_Down"/><g id="Volume_Mute_4_"/><g id="Volume_3_"/><g id="Maximize"/><g id="Fullscreen_Enter_2_"/><g id="Fullscreen_Exit_2_"/><g id="Eject_2_"/><g id="Step_Forward_2_"/><g id="Fast-forward_1_"/><g id="Forward_2_"/><g id="Stop_2_"/><g id="Pause_2_"/><g id="Play_2_"/><g id="Rewind_2_"/><g id="Fast-backward"/><g id="Step_Backward_2_"/><g id="Record_2_"/></g><g id="Lockup"/></svg>